<svg width="110" height="74" viewBox="0 0 110 74" fill="none" xmlns="http://www.w3.org/2000/svg">
<path d="M25.9821 27.25L42.2267 12.9093C44.3938 10.9961 47.727 11.3139 49.4935 13.6022L56.5732 22.7727C58.4094 25.1512 61.9139 25.3844 64.0491 23.2701L83.8889 3.625" stroke="#0085E8" stroke-width="3" stroke-linecap="round"/>
<ellipse cx="26.1111" cy="26.5" rx="3.61111" ry="3.5" fill="#F7F7F7"/>
<ellipse cx="45.4564" cy="11.25" rx="3.61111" ry="3.5" fill="#F7F7F7"/>
<ellipse cx="60.1588" cy="24.5" rx="3.61111" ry="3.5" fill="#F7F7F7"/>
<ellipse cx="83.8889" cy="3.5" rx="3.61111" ry="3.5" fill="#F7F7F7"/>
<rect y="38" width="110" height="36" rx="10" fill="#242424"/>
<rect x="42" y="54" width="60" height="4" rx="2" fill="#D1D1D1"/>
<path d="M17.7696 57.6903C19.5908 57.6903 21.4255 57.6903 23.2466 57.6903C24.4068 57.6903 25.4995 57.5193 26.3898 56.6499C27.1183 55.9372 27.2532 54.9965 27.4556 54.0415C27.7119 52.8585 27.9682 51.6755 28.2245 50.4782C28.3999 49.6657 28.7506 48.6823 28.5348 47.8556C27.9547 45.5466 25.0273 46.0454 23.3141 46.0454C21.2366 46.0454 19.1726 46.0454 17.0951 46.0454C15.9485 46.0454 14.8288 46.359 14.0329 47.2997C13.5203 47.9126 13.3854 48.611 13.2235 49.3664C12.7783 51.6327 12.2926 53.8847 11.807 56.1367C11.6047 57.0917 11.3888 58.0609 11.1865 59.0159C11.0111 59.8283 10.8357 60.6408 11.2809 61.4104C11.7261 62.1801 12.5355 62.565 13.3719 62.6362C13.871 62.679 14.2217 62.7075 14.5725 63.0923C15.2335 63.7907 15.854 64.5319 16.542 65.2018C17.6617 66.2993 19.402 66.1995 20.6161 65.3016C21.2501 64.8312 21.4929 64.2754 21.8302 63.5769C22.1674 62.8928 22.8689 62.6505 23.5704 62.6362C24.0156 62.6362 24.4608 62.6362 24.9059 62.6362C26.0256 62.6362 26.0256 60.7976 24.9059 60.7976C23.8402 60.7976 22.761 60.6978 21.7762 61.2109C21.0073 61.61 20.4812 62.2514 20.1439 63.0638C19.9416 63.5627 19.6043 63.8763 19.1187 64.0473C18.1069 64.4036 17.6617 63.7765 17.0277 63.0923C16.4071 62.4224 15.7596 61.5102 14.9367 61.0969C14.559 60.9116 14.1678 60.8261 13.7496 60.7976C13.4798 60.7833 13.1965 60.8118 12.9537 60.6408C12.7243 60.484 12.6974 60.3129 12.7243 60.0706C12.7918 59.472 12.9806 58.8734 13.1021 58.289C13.5742 56.1082 14.0464 53.9275 14.5185 51.7325C14.6804 50.9628 14.8558 50.1931 15.0177 49.4092C15.193 48.5825 15.6517 47.9839 16.5286 47.8841C17.0142 47.8271 17.5403 47.8698 18.026 47.8698C19.0242 47.8698 20.0225 47.8698 21.0208 47.8698C22.6531 47.8698 24.2989 47.8128 25.9312 47.8698C26.2684 47.8841 26.7676 47.9411 26.835 48.3687C26.862 48.5397 26.7811 48.7678 26.7406 48.9388C26.5247 49.9223 26.3224 50.9058 26.1065 51.8893C25.9177 52.773 25.7288 53.6567 25.54 54.5404C25.3376 55.4383 24.5822 55.8374 23.7458 55.8517C21.9246 55.8659 20.0899 55.8517 18.2688 55.8517C18.0934 55.8517 17.918 55.8517 17.7427 55.8517C16.65 55.8517 16.65 57.6903 17.7696 57.6903Z" fill="#0085E8"/>
<path d="M29.3981 62.6219H29.1418C28.6966 62.6219 28.3863 62.2513 28.4673 61.7952L30.4638 50.6064C30.5447 50.1502 30.9764 49.7797 31.4351 49.7797H31.6914C32.1366 49.7797 32.4469 50.1502 32.3659 50.6064L30.3694 61.7952C30.2884 62.2513 29.8567 62.6219 29.3981 62.6219Z" fill="#0085E8"/>
<path d="M31.9477 48.2825C32.5289 48.2825 33 47.7847 33 47.1707C33 46.5567 32.5289 46.059 31.9477 46.059C31.3666 46.059 30.8955 46.5567 30.8955 47.1707C30.8955 47.7847 31.3666 48.2825 31.9477 48.2825Z" fill="#0085E8"/>
</svg>
