<svg width="122" height="39" viewBox="0 0 122 39" fill="none" xmlns="http://www.w3.org/2000/svg">
<path d="M14.0124 22.7962C17.782 22.7962 21.5795 22.7962 25.3491 22.7962C27.7505 22.7962 30.0123 22.4626 31.8552 20.7672C33.363 19.3775 33.6423 17.5431 34.0611 15.6809C34.5916 13.374 35.1222 11.0671 35.6527 8.73246C36.0157 7.14821 36.7417 5.23043 36.2949 3.61838C35.0942 -0.884226 29.035 0.08856 25.4887 0.08856C21.1886 0.08856 16.9164 0.08856 12.6162 0.08856C10.2428 0.08856 7.92516 0.700025 6.2777 2.53442C5.21663 3.72956 4.9374 5.09146 4.60232 6.56454C3.68086 10.9838 2.67563 15.3752 1.67041 19.7666C1.25156 21.6288 0.804793 23.5188 0.385948 25.381C0.0229485 26.9652 -0.340051 28.5495 0.581409 30.0504C1.50287 31.5512 3.17825 32.3017 4.90948 32.4406C5.94263 32.524 6.66862 32.5796 7.39462 33.33C8.76285 34.6919 10.0473 36.1372 11.4714 37.4435C13.789 39.5837 17.3911 39.3891 19.9041 37.6381C21.2165 36.7209 21.7191 35.6369 22.4172 34.275C23.1153 32.9409 24.5673 32.4684 26.0193 32.4406C26.9407 32.4406 27.8622 32.4406 28.7836 32.4406C31.1013 32.4406 31.1013 28.8552 28.7836 28.8552C26.5777 28.8552 24.3439 28.6607 22.3055 29.6613C20.7139 30.4395 19.6249 31.6902 18.9268 33.2745C18.508 34.2472 17.8099 34.8587 16.8047 35.1922C14.7105 35.8871 13.789 34.6642 12.4766 33.33C11.1922 32.0237 9.85185 30.2449 8.14854 29.4389C7.3667 29.0776 6.55693 28.9108 5.69132 28.8552C5.13286 28.8274 4.54648 28.883 4.04386 28.5495C3.56917 28.2438 3.51332 27.9102 3.56917 27.4377C3.70879 26.2704 4.09971 25.1031 4.35101 23.9635C5.32832 19.711 6.30563 15.4586 7.28293 11.1783C7.61801 9.67745 7.98101 8.17658 8.31608 6.64792C8.67908 5.03587 9.62846 3.86853 11.4435 3.67397C12.4487 3.5628 13.5377 3.64618 14.5429 3.64618C16.6092 3.64618 18.6755 3.64618 20.7418 3.64618C24.1205 3.64618 27.5271 3.535 30.9058 3.64618C31.6039 3.67397 32.637 3.78515 32.7766 4.61896C32.8325 4.95249 32.6649 5.39719 32.5812 5.73072C32.1344 7.6485 31.7156 9.56627 31.2688 11.4841C30.8779 13.2073 30.487 14.9305 30.096 16.6537C29.6772 18.4047 28.1135 19.183 26.3823 19.2108C22.6127 19.2385 18.8151 19.2108 15.0455 19.2108C14.6825 19.2108 14.3195 19.2108 13.9565 19.2108C11.6948 19.2108 11.6948 22.7962 14.0124 22.7962Z" fill="#0085E8"/>
<path d="M38.082 32.4129H37.5514C36.63 32.4129 35.9877 31.6903 36.1553 30.8009L40.2879 8.98265C40.4554 8.09325 41.349 7.37061 42.2983 7.37061H42.8289C43.7503 7.37061 44.3926 8.09325 44.225 8.98265L40.0924 30.8009C39.9249 31.6903 39.0313 32.4129 38.082 32.4129Z" fill="#0085E8"/>
<path d="M43.3594 4.4523C44.5623 4.4523 45.5374 3.48169 45.5374 2.28438C45.5374 1.08707 44.5623 0.116455 43.3594 0.116455C42.1565 0.116455 41.1814 1.08707 41.1814 2.28438C41.1814 3.48169 42.1565 4.4523 43.3594 4.4523Z" fill="#0085E8"/>
<path d="M58.2983 30.1061C55.1989 30.1061 52.8812 29.0221 51.3455 26.882C49.8097 24.7418 49.3909 22.157 50.0889 19.1831C50.7591 16.2091 52.2949 13.7355 54.6962 11.7899C57.0976 9.81654 59.7503 8.84375 62.6822 8.84375C64.6648 8.84375 66.3401 9.28845 67.7363 10.2057C68.7136 10.8449 69.5234 11.6509 70.1097 12.6515C70.5007 13.2908 70.2214 14.1802 69.5234 14.5415L69.3837 14.6249C68.7694 14.9306 68.0714 14.7638 67.7363 14.208C66.6473 12.4292 64.8602 11.512 62.403 11.512C60.0854 11.512 58.0191 12.2624 56.232 13.7911C54.417 15.3197 53.2722 17.2097 52.7416 19.5166C52.2111 21.8235 52.5182 23.7135 53.6352 25.2421C54.7521 26.743 56.4275 27.4934 58.7172 27.4934C60.1971 27.4934 61.5653 27.1599 62.8498 26.4929C63.7991 25.9926 64.6368 25.3811 65.3628 24.5751C65.8096 24.1026 66.5356 23.9914 67.0661 24.3249C67.7363 24.7696 67.7921 25.7424 67.2057 26.3261C66.2284 27.2989 65.1115 28.1327 63.855 28.772C62.0679 29.6614 60.225 30.1061 58.2983 30.1061Z" fill="#474747"/>
<path d="M79.1847 14.6805C80.888 14.6805 82.1725 15.2364 82.9823 16.3203C83.792 17.4043 84.0154 18.8773 83.5966 20.7117L81.7536 28.6886C81.614 29.2723 81.0835 29.717 80.4692 29.717C79.6873 29.717 79.1568 29.0221 79.3243 28.2439L81.0276 20.8507C81.3069 19.6278 81.2231 18.7106 80.7484 18.0713C80.2737 17.4321 79.464 17.0985 78.2912 17.0985C77.0347 17.0985 75.9177 17.4877 74.9404 18.2937C73.9631 19.0719 73.293 20.2948 72.93 21.9347V21.9069L71.3663 28.6886C71.2267 29.2723 70.6961 29.717 70.0818 29.717C69.3 29.717 68.7694 29.0221 68.937 28.2439L73.1254 10.2335C73.265 9.64978 73.7956 9.20508 74.4099 9.20508C75.1917 9.20508 75.7223 9.89993 75.5547 10.6782L74.0748 17.0152C75.4151 15.4587 77.1184 14.6805 79.1847 14.6805Z" fill="#474747"/>
<path d="M93.6208 14.6802C95.8268 14.6802 97.4742 15.4306 98.5632 16.9593C99.6522 18.4601 99.9314 20.2945 99.4009 22.4347C99.2892 23.0739 98.6749 23.5742 98.0327 23.5742H86.8635C86.7797 24.8805 87.1427 25.9089 87.8966 26.6315C88.6505 27.3542 89.7116 27.7155 91.0519 27.7155C92.6715 27.7155 94.0118 27.2152 95.1287 26.2424C95.5755 25.8533 96.1898 25.8255 96.6086 26.1591C97.195 26.6038 97.195 27.4932 96.6086 27.9934C96.0222 28.5215 95.3241 28.9384 94.5702 29.272C93.3137 29.8278 92.0013 30.1058 90.6331 30.1058C88.3434 30.1058 86.6122 29.3276 85.4952 27.7989C84.3504 26.2424 84.0432 24.3524 84.5738 22.1011C85.0764 19.961 86.1654 18.21 87.8687 16.7925C89.572 15.375 91.4987 14.6802 93.6208 14.6802ZM87.3661 21.2951H97.0833C97.2229 19.9054 96.9437 18.8493 96.2456 18.1544C95.5475 17.4318 94.5981 17.0982 93.3695 17.0982C92.0013 17.0982 90.8006 17.4874 89.7395 18.2378C88.6505 18.9604 87.8687 19.9888 87.3661 21.2951Z" fill="#474747"/>
<path d="M103.366 14.6246C103.841 12.6235 104.734 11.0948 106.047 10.122C106.996 9.39939 108.169 8.95469 109.509 8.84352C110.319 8.76013 110.905 9.51057 110.71 10.2888C110.57 10.8447 110.095 11.2338 109.537 11.2894C107.61 11.4006 106.382 12.5401 105.879 14.6524L105.767 15.0971H108.169C108.923 15.0971 109.453 15.792 109.286 16.5424V16.5702C109.146 17.1539 108.615 17.5708 108.029 17.5708H105.209L102.584 28.7439C102.444 29.3276 101.914 29.7445 101.328 29.7445H101.272C100.518 29.7445 99.9873 29.0497 100.155 28.2992L102.668 17.543H101.746C100.992 17.543 100.462 16.8482 100.629 16.0977V16.0699C100.769 15.4863 101.3 15.0693 101.886 15.0693H103.226L103.366 14.6246Z" fill="#474747"/>
<path d="M115.959 14.6802C118.165 14.6802 119.813 15.4306 120.902 16.9593C121.991 18.4601 122.27 20.2945 121.739 22.4347V22.4625C121.628 23.1017 121.041 23.5742 120.399 23.5742H109.174C109.09 24.8805 109.453 25.9089 110.207 26.6315C110.961 27.3542 112.022 27.7155 113.362 27.7155C114.982 27.7155 116.322 27.2152 117.439 26.2424C117.886 25.8533 118.5 25.8255 118.919 26.1591C119.506 26.6038 119.506 27.4932 118.919 27.9934C118.333 28.5215 117.635 28.9384 116.881 29.272C115.624 29.8278 114.312 30.1058 112.944 30.1058C110.654 30.1058 108.923 29.3276 107.806 27.7989C106.661 26.2424 106.354 24.3524 106.884 22.1011C107.387 19.961 108.476 18.21 110.179 16.7925C111.883 15.375 113.809 14.6802 115.959 14.6802ZM109.677 21.2951H119.394C119.533 19.9054 119.254 18.8493 118.556 18.1544C117.858 17.4318 116.909 17.0982 115.68 17.0982C114.312 17.0982 113.111 17.4874 112.05 18.2378C110.961 18.9604 110.179 19.9888 109.677 21.2951Z" fill="#474747"/>
</svg>
