<svg width="30" height="30" viewBox="0 0 30 30" fill="none" xmlns="http://www.w3.org/2000/svg">
<path d="M20.4443 6.64295V8.12057C20.4443 8.39115 20.6059 8.63285 20.856 8.73639C21.1096 8.84139 21.3941 8.78045 21.5828 8.59189L23.4388 6.73664H28.1249C29.0781 6.73664 29.8535 5.9615 29.8535 5.00877V1.72787C29.8535 0.775137 29.0781 0 28.1249 0H21.006C20.0528 0 19.2773 0.775137 19.2773 1.72787V5.00871C19.2773 5.74963 19.7571 6.40635 20.4443 6.64295ZM20.1562 1.72787C20.1562 1.25953 20.5374 0.878496 21.006 0.878496H28.1249C28.5935 0.878496 28.9747 1.25953 28.9747 1.72787V5.00871C28.9747 5.47705 28.5935 5.85809 28.1249 5.85809H23.3347C23.1673 5.85809 23.0098 5.92324 22.891 6.04166L21.3233 7.60881V6.45205C21.3233 6.1575 21.1155 5.89992 20.8292 5.83957C20.4393 5.75736 20.1563 5.40791 20.1563 5.00877V1.72787H20.1562Z" fill="#F7F7F7"/>
<path d="M28.8331 25.7823H27.9973V11.9658C27.9973 11.0552 27.2562 10.3145 26.3453 10.3145H18.1231C17.8804 10.3145 17.6836 10.5111 17.6836 10.7538C17.6836 10.9964 17.8804 11.193 18.1231 11.193H26.3452C26.7715 11.193 27.1183 11.5397 27.1183 11.9658V25.7824H25.6535V13.9011C25.6535 13.2153 25.0953 12.6573 24.4091 12.6573H15.4321C15.561 12.322 15.6501 11.9665 15.6909 11.5961C16.1577 11.4932 16.5081 11.0764 16.5081 10.5792C16.5081 10.1774 16.5081 7.14351 16.5081 6.78193C16.5081 5.91392 15.8054 5.20687 14.9387 5.19949C14.9106 4.35134 14.2116 3.67007 13.3564 3.67007H9.41506C7.72132 3.67007 6.34336 5.04744 6.34336 6.74045V10.5792C6.34336 11.0764 6.69372 11.4932 7.16062 11.5961C7.20142 11.9666 7.29047 12.322 7.41943 12.6573H5.59086C4.90472 12.6573 4.34649 13.2153 4.34649 13.9011V17.4894C3.77074 17.7054 3.27054 18.0634 2.88166 18.5154V11.9658C2.88166 11.5397 3.22845 11.193 3.65479 11.193H4.75061C4.99336 11.193 5.19008 10.9963 5.19008 10.7537C5.19008 10.5111 4.99336 10.3144 4.75061 10.3144H3.65479C2.74385 10.3144 2.00278 11.0552 2.00278 11.9657V20.8661V25.7822H1.16693C0.523469 25.7822 0 26.3055 0 26.9487C0 28.6312 1.36934 30 3.05253 30H26.9475C28.6307 30 30 28.6312 30 26.9488C30 26.3056 29.4765 25.7823 28.8331 25.7823ZM24.4091 13.5358C24.6107 13.5358 24.7746 13.6997 24.7746 13.9011V25.7824H20.8504V24.1729C20.8504 23.9303 20.6536 23.7336 20.4109 23.7336C20.1682 23.7336 19.9714 23.9303 19.9714 24.1729V25.7824H17.8616V24.3885C17.8616 24.1458 17.6649 23.9492 17.4221 23.9492C17.1794 23.9492 16.9827 24.1458 16.9827 24.3885V25.7824H13.4081L12.4606 20.4421L12.8242 19.7909C12.8943 19.8063 12.9656 19.8149 13.037 19.8149C13.2879 19.8149 13.5387 19.7202 13.7344 19.5323L15.3657 17.9444C15.4826 17.8307 15.564 17.6923 15.6104 17.5444L18.0114 18.2489C19.1655 18.5876 19.9715 19.6638 19.9715 20.8661V22.1194C19.9715 22.362 20.1682 22.5586 20.411 22.5586C20.6537 22.5586 20.8504 22.362 20.8504 22.1194V20.8661C20.8504 19.2766 19.7848 17.8537 18.259 17.4059L15.3589 16.5549C15.2791 16.4787 15.1866 16.416 15.0851 16.3709L14.4849 16.1036C14.308 16.0247 14.1185 15.9927 13.9325 16.0047V14.6004C14.3368 14.3086 14.6887 13.9484 14.9708 13.5359H24.4091V13.5358ZM8.14384 17.1679L8.73261 16.9036C8.82934 16.8603 8.94212 16.8727 9.02706 16.9362L10.7615 18.2316L9.90957 18.9428C9.86127 18.9833 9.79098 18.981 9.74544 18.9378L8.11793 17.3086V17.3085C8.07415 17.2648 8.09015 17.192 8.14384 17.1679ZM13.0535 15.0898V16.4313L11.4653 17.6606L9.79802 16.4154V15.0899C10.8274 15.5137 11.9951 15.5257 13.0535 15.0898ZM14.7274 17.1734C14.7814 17.1973 14.7976 17.2711 14.7526 17.315L13.1234 18.9008C13.0772 18.9451 13.0059 18.9472 12.9573 18.9056C12.9572 18.9056 12.9572 18.9056 12.9572 18.9056L12.1659 18.2293L13.8295 16.9417C13.9145 16.8758 14.0286 16.8621 14.127 16.9059L14.7274 17.1734ZM11.105 19.9254L10.7774 19.363L11.4666 18.7876L12.0835 19.3148L11.7427 19.9254H11.105ZM11.2208 20.8039H11.6322L12.5155 25.7823H10.338L11.2208 20.8039ZM18.9151 26.6609C18.7376 27.1227 18.2904 27.4519 17.7667 27.4519H12.2332C11.7095 27.4519 11.2623 27.1227 11.0849 26.6609H18.9151ZM7.22229 6.74045C7.22229 5.53183 8.20598 4.54857 9.41512 4.54857H13.3564C13.7448 4.54857 14.0607 4.86433 14.0607 5.25252C14.0607 5.70761 14.4312 6.07793 14.8865 6.07793H14.925C15.3133 6.07793 15.6292 6.39369 15.6292 6.78187V8.83904H15.2784C15.0819 8.83904 14.922 8.67925 14.922 8.48285V8.0475C14.922 7.17498 14.0699 6.55933 13.2409 6.83308C12.0708 7.21962 10.7821 7.21974 9.61196 6.83337C9.61061 6.83291 9.6088 6.83232 9.60704 6.83179C8.78027 6.56138 7.92953 7.17492 7.92953 8.04738V8.48291C7.92953 8.67931 7.76968 8.8391 7.57313 8.8391H7.22229V6.74045ZM7.22229 10.5792V9.71759H7.57313C8.25428 9.71759 8.80847 9.16371 8.80847 8.48285V8.04732C8.80847 7.77392 9.07583 7.58127 9.33475 7.66705C9.33604 7.66752 9.33774 7.66804 9.33938 7.66851C10.6865 8.11259 12.17 8.11218 13.5167 7.66722C13.7756 7.5815 14.0431 7.77375 14.0431 8.0475V8.48285C14.0431 9.16371 14.5972 9.71759 15.2784 9.71759H15.6292V10.5792C15.6292 10.6689 15.5562 10.7418 15.4666 10.7418C15.1315 10.7418 14.8523 11.0046 14.8311 11.3402C14.7181 13.1309 13.2224 14.5336 11.4258 14.5336C9.62925 14.5336 8.13353 13.1309 8.02051 11.3403C7.99941 11.0047 7.72026 10.7418 7.38502 10.7418C7.29527 10.7418 7.22229 10.6689 7.22229 10.5792ZM5.59086 13.5358H7.88082C8.16295 13.9483 8.51484 14.3085 8.91902 14.6003V16.0019C8.73449 15.9913 8.54703 16.024 8.37258 16.1023L7.7838 16.3665C7.68304 16.4117 7.59124 16.4742 7.51187 16.5501L5.22537 17.2209V13.9012C5.22543 13.6997 5.38933 13.5358 5.59086 13.5358ZM2.88166 20.8662C2.88166 19.6638 3.68773 18.5876 4.84194 18.249L4.91346 18.228C4.9151 18.2275 4.91668 18.227 4.91832 18.2266L7.25881 17.5399C7.30442 17.6825 7.38326 17.8165 7.49598 17.9294V17.9293L9.12654 19.5616C9.128 19.5631 9.12947 19.5646 9.13093 19.566C9.32549 19.7553 9.57749 19.851 9.83032 19.851C9.89796 19.851 9.96555 19.8433 10.0322 19.8296L10.3917 20.4466L9.44548 25.7824H5.86889V24.3885C5.86889 24.1458 5.67217 23.9492 5.42942 23.9492C5.18668 23.9492 4.98996 24.1458 4.98996 24.3885V25.7824H2.88166V20.8662ZM26.9475 29.1215H3.05253C1.85401 29.1215 0.878877 28.1468 0.878877 26.9488C0.878877 26.79 1.00807 26.6609 1.16693 26.6609H10.1698C10.3726 27.6135 11.2206 28.3304 12.2332 28.3304H17.7667C18.7794 28.3304 19.6273 27.6135 19.8301 26.6609H28.833C28.9919 26.6609 29.1211 26.79 29.1211 26.9488C29.1211 28.1468 28.146 29.1215 26.9475 29.1215Z" fill="#F7F7F7"/>
</svg>
