<svg width="24" height="30" viewBox="0 0 24 30" fill="none" xmlns="http://www.w3.org/2000/svg">
<path d="M12.5725 7.16632H18.2541C18.4799 7.16632 18.6629 6.98333 18.6629 6.75757C18.6629 6.5318 18.4799 6.34882 18.2541 6.34882H12.5725C12.3468 6.34882 12.1638 6.5318 12.1638 6.75757C12.1638 6.98333 12.3468 7.16632 12.5725 7.16632Z" fill="#F7F7F7"/>
<path d="M12.1638 8.66977C12.1638 8.89553 12.3468 9.07852 12.5725 9.07852H18.2541C18.4799 9.07852 18.6629 8.89553 18.6629 8.66977C18.6629 8.44401 18.4799 8.26102 18.2541 8.26102H12.5725C12.3468 8.26102 12.1638 8.44401 12.1638 8.66977Z" fill="#F7F7F7"/>
<path d="M12.5725 10.9907H18.2541C18.4799 10.9907 18.6629 10.8077 18.6629 10.582C18.6629 10.3562 18.4799 10.1732 18.2541 10.1732H12.5725C12.3468 10.1732 12.1638 10.3562 12.1638 10.582C12.1638 10.8077 12.3468 10.9907 12.5725 10.9907Z" fill="#F7F7F7"/>
<path d="M18.6629 21.2537C18.6629 21.0279 18.4799 20.8449 18.2542 20.8449H12.9725C12.7467 20.8449 12.5637 21.0279 12.5637 21.2537C12.5637 21.4794 12.7467 21.6624 12.9725 21.6624H18.2542C18.4799 21.6624 18.6629 21.4794 18.6629 21.2537Z" fill="#F7F7F7"/>
<path d="M9.80251 17.2649C9.80251 17.0392 9.61952 16.8562 9.39376 16.8562H3.71216C3.48639 16.8562 3.30341 17.0392 3.30341 17.2649C3.30341 17.4907 3.48639 17.6737 3.71216 17.6737H9.39376C9.61946 17.6737 9.80251 17.4907 9.80251 17.2649Z" fill="#F7F7F7"/>
<path d="M3.71216 15.7615H9.39376C9.61952 15.7615 9.80251 15.5786 9.80251 15.3528C9.80251 15.127 9.61952 14.944 9.39376 14.944H3.71216C3.48639 14.944 3.30341 15.127 3.30341 15.3528C3.30335 15.5786 3.48639 15.7615 3.71216 15.7615Z" fill="#F7F7F7"/>
<path d="M7.10052 4.25941C4.76457 4.25941 2.86414 6.15984 2.86414 8.4958C2.86414 10.8318 4.76457 12.7322 7.10052 12.7322C9.43648 12.7322 11.3369 10.8318 11.3369 8.4958C11.3369 6.15984 9.43654 4.25941 7.10052 4.25941ZM7.10052 11.8533C5.24919 11.8533 3.74304 10.3472 3.74304 8.49586C3.74304 6.79348 5.01664 5.38295 6.66107 5.16697V8.49586C6.66107 8.73856 6.85783 8.93531 7.10052 8.93531H10.4294C10.2135 10.5797 8.80296 11.8533 7.10052 11.8533ZM7.53998 8.05641V5.16697C9.04056 5.36402 10.2324 6.55582 10.4294 8.05641H7.53998Z" fill="#F7F7F7"/>
<path d="M10.8526 14.3469V18.271C10.8526 18.6636 11.172 18.983 11.5645 18.983H18.3904C18.783 18.983 19.1024 18.6636 19.1024 18.271V14.3469C19.1024 13.9543 18.783 13.6349 18.3904 13.6349H11.5645C11.1719 13.6349 10.8526 13.9542 10.8526 14.3469ZM11.7315 14.5138H18.2235V18.104H11.7315V14.5138Z" fill="#F7F7F7"/>
<path d="M2.86395 26.3653C2.86395 26.7578 3.18335 27.0772 3.57587 27.0772H4.76995C5.16253 27.0772 5.48192 26.7578 5.48192 26.3653V20.4042C5.48192 20.0116 5.16253 19.6923 4.76995 19.6923H3.57587C3.18329 19.6923 2.86395 20.0117 2.86395 20.4042V26.3653ZM3.74286 20.5712H4.60301V26.1983H3.74286V20.5712Z" fill="#F7F7F7"/>
<path d="M6.82025 21.2563C6.42767 21.2563 6.10828 21.5757 6.10828 21.9683V26.3653C6.10828 26.7578 6.42767 27.0772 6.82025 27.0772H8.01427C8.40685 27.0772 8.72625 26.7578 8.72625 26.3653V21.9683C8.72625 21.5757 8.40685 21.2563 8.01427 21.2563H6.82025ZM7.84734 26.1983H6.98718V22.1353H7.84734V26.1983Z" fill="#F7F7F7"/>
<path d="M10.0646 27.0772H11.2587C11.6513 27.0772 11.9707 26.7578 11.9707 26.3653V23.9169C11.9707 23.5243 11.6513 23.2049 11.2587 23.2049H10.0646C9.67203 23.2049 9.35263 23.5243 9.35263 23.9169V26.3653C9.35263 26.7578 9.67203 27.0772 10.0646 27.0772ZM10.2315 24.0838H11.0918V26.1983H10.2315V24.0838Z" fill="#F7F7F7"/>
<path d="M18.2541 22.8533H12.9724C12.7467 22.8533 12.5637 23.0363 12.5637 23.2621C12.5637 23.4878 12.7467 23.6708 12.9724 23.6708H18.2541C18.4799 23.6708 18.6629 23.4878 18.6629 23.2621C18.663 23.0363 18.4799 22.8533 18.2541 22.8533Z" fill="#F7F7F7"/>
<path d="M18.2541 24.8617H12.9724C12.7467 24.8617 12.5637 25.0447 12.5637 25.2705C12.5637 25.4963 12.7467 25.6792 12.9724 25.6792H18.2541C18.4799 25.6792 18.6629 25.4963 18.6629 25.2705C18.6629 25.0447 18.4799 24.8617 18.2541 24.8617Z" fill="#F7F7F7"/>
<path d="M22.8565 5.44857C23.0992 5.44857 23.296 5.25182 23.296 5.00912V1.47293C23.296 0.660762 22.6352 0 21.8231 0H4.21067C3.3985 0 2.73774 0.660762 2.73774 1.47293V2.03373H2.17694C1.36477 2.03373 0.70401 2.69449 0.70401 3.50666V22.3338C0.70401 22.5765 0.900768 22.7733 1.14346 22.7733C1.38616 22.7733 1.58292 22.5765 1.58292 22.3338V3.50666C1.58292 3.17912 1.8494 2.91264 2.17694 2.91264H19.7893C20.1169 2.91264 20.3834 3.17912 20.3834 3.50666V28.5271C20.3834 28.8546 20.1169 29.1211 19.7893 29.1211H2.17694C1.8494 29.1211 1.58292 28.8546 1.58292 28.5271V24.3846C1.58292 24.1419 1.38616 23.9452 1.14346 23.9452C0.900768 23.9452 0.70401 24.1419 0.70401 24.3846V28.5271C0.70401 29.3392 1.36477 30 2.17694 30H19.7893C20.6015 30 21.2623 29.3392 21.2623 28.5271V27.9663H21.8231C22.6352 27.9663 23.296 27.3055 23.296 26.4933V7.0599C23.296 6.81721 23.0992 6.62045 22.8565 6.62045C22.6139 6.62045 22.4171 6.81721 22.4171 7.0599V26.4933C22.4171 26.8209 22.1506 27.0874 21.8231 27.0874H21.2623V3.50666C21.2623 2.69449 20.6015 2.03373 19.7893 2.03373C18.8998 2.03373 4.56622 2.03373 3.61665 2.03373V1.47293C3.61665 1.14539 3.88313 0.878906 4.21067 0.878906H21.8231C22.1506 0.878906 22.4171 1.14539 22.4171 1.47293V5.00912C22.4171 5.25182 22.6139 5.44857 22.8565 5.44857Z" fill="#F7F7F7"/>
</svg>
