<svg width="26" height="60" viewBox="0 0 26 60" fill="none" xmlns="http://www.w3.org/2000/svg">
<g clip-path="url(#clip0)">
<path d="M0.0301295 21.1801C0.0301295 17.7374 -0.109003 14.2364 0.355759 10.8641C1.27048 4.20833 7.3479 -0.425898 13.9286 0.03048C20.3316 0.47767 25.7045 6.02466 25.8821 12.659C26.0361 18.4398 26.0361 24.2226 25.8821 30.0075C25.6867 37.0523 19.784 42.6973 12.9014 42.6636C6.01874 42.6299 0.25807 36.9206 0.0449309 29.8574C-0.0438771 26.9537 0.0301295 24.0715 0.0301295 21.1801ZM23.5731 21.3302C23.5731 18.6409 23.6146 15.9517 23.5731 13.2624C23.5177 10.3874 22.3723 7.65009 20.3841 5.64086C18.3959 3.63163 15.7241 2.51145 12.9449 2.5219C10.1657 2.53235 7.50187 3.67259 5.52781 5.69672C3.55375 7.72085 2.42767 10.4667 2.39242 13.342C2.33914 18.6716 2.33914 24 2.39242 29.3275C2.47419 32.1697 3.62041 34.8678 5.589 36.8519C7.55758 38.8359 10.1944 39.9507 12.9425 39.9606C15.6907 39.9705 18.3349 38.8749 20.3169 36.9051C22.2988 34.9354 23.4633 32.2457 23.5642 29.4041C23.6116 26.7118 23.5731 24.0194 23.5731 21.3302Z" fill="#0085E8"/>
<path d="M12.9511 57.0536L20.7751 48.9705C21.0534 48.6825 21.2872 48.2445 21.6188 48.1465C22.1516 47.9903 22.7496 48.0577 23.318 48.0301C23.318 48.6244 23.5222 49.4023 23.238 49.776C22.4269 50.845 21.4145 51.7547 20.4791 52.7226C18.4326 54.8421 16.385 56.9596 14.3365 59.0751C13.1287 60.3187 12.8031 60.3003 11.5716 59.0414C8.72091 56.1041 5.88498 53.1514 3.03128 50.214C2.40075 49.5616 1.8087 48.8479 2.61389 48.0148C3.41908 47.1817 4.11178 47.8739 4.7216 48.5049L12.9511 57.0536Z" fill="#0085E8"/>
<path d="M14.1471 12.3774C14.1471 13.0849 14.2922 13.8384 14.0998 14.4877C13.9488 15.0023 13.3893 15.3883 13.0104 15.8293C12.6078 15.4128 11.8973 15.0268 11.8588 14.5735C11.7227 12.9624 11.7227 11.3421 11.8588 9.73099C11.8944 9.31137 12.5575 8.94381 12.9334 8.55176C13.339 8.96832 13.9754 9.32362 14.0938 9.81369C14.2863 10.6223 14.1442 11.5198 14.1471 12.3774Z" fill="#0085E8"/>
</g>
<defs>
<clipPath id="clip0">
<rect width="26" height="60" fill="white"/>
</clipPath>
</defs>
</svg>
