<svg width="30" height="30" viewBox="0 0 30 30" fill="none" xmlns="http://www.w3.org/2000/svg">
<path d="M17.4222 7.03126C16.1389 7.03125 14.8954 7.47619 13.9034 8.29027C12.9114 9.10435 12.2324 10.2372 11.9821 11.4958C11.7317 12.7544 11.9255 14.0608 12.5304 15.1926C13.1353 16.3243 14.114 17.2113 15.2995 17.7024C16.4851 18.1934 17.8043 18.2582 19.0323 17.8857C20.2603 17.5132 21.3211 16.7265 22.034 15.6595C22.747 14.5925 23.0679 13.3113 22.9421 12.0342C22.8163 10.7572 22.2516 9.56322 21.3442 8.65583C20.8304 8.13916 20.2192 7.72955 19.5459 7.45069C18.8727 7.17183 18.1509 7.02927 17.4222 7.03126ZM20.6813 15.837C20.0367 16.4816 19.2154 16.9205 18.3214 17.0984C17.4273 17.2762 16.5005 17.185 15.6583 16.8361C14.8161 16.4873 14.0963 15.8965 13.5898 15.1385C13.0834 14.3806 12.813 13.4895 12.813 12.5779C12.813 11.6663 13.0834 10.7751 13.5898 10.0172C14.0963 9.25921 14.8161 8.66845 15.6583 8.3196C16.5005 7.97075 17.4273 7.87947 18.3214 8.05732C19.2154 8.23517 20.0367 8.67415 20.6813 9.31875C21.1129 9.74468 21.4557 10.2521 21.6896 10.8116C21.9236 11.3711 22.044 11.9714 22.044 12.5779C22.044 13.1843 21.9236 13.7846 21.6896 14.3441C21.4557 14.9036 21.1129 15.411 20.6813 15.837Z" fill="#F7F7F7"/>
<path d="M8.47265 20.2014L6.48392 22.19C6.39601 22.278 6.34662 22.3972 6.34662 22.5215C6.34662 22.6458 6.39601 22.7651 6.48392 22.853C6.57183 22.9409 6.69106 22.9903 6.81538 22.9903C6.9397 22.9903 7.05894 22.9409 7.14685 22.853L9.13558 20.8643C9.1791 20.8208 9.21363 20.7691 9.23719 20.7122C9.26075 20.6553 9.27287 20.5944 9.27287 20.5328C9.27287 20.4713 9.26075 20.4103 9.23719 20.3534C9.21363 20.2966 9.1791 20.2449 9.13558 20.2014C9.09205 20.1578 9.04037 20.1233 8.9835 20.0998C8.92663 20.0762 8.86567 20.0641 8.80411 20.0641C8.74255 20.0641 8.6816 20.0762 8.62472 20.0998C8.56785 20.1233 8.51618 20.1578 8.47265 20.2014Z" fill="#F7F7F7"/>
<path d="M27.6563 0.46875H6.09377C5.72096 0.469246 5.36357 0.617563 5.09995 0.881179C4.83634 1.14479 4.68802 1.50219 4.68752 1.875V15.9375C4.68802 16.3103 4.83634 16.6677 5.09995 16.9313C5.36357 17.1949 5.72096 17.3433 6.09377 17.3438H10.6676L9.79866 18.2127L9.46702 17.8811C9.37912 17.7932 9.25993 17.7439 9.13567 17.7439C9.0114 17.7439 8.89222 17.7932 8.80432 17.8811L0.849633 25.8363C0.586231 26.1002 0.438293 26.4578 0.438293 26.8307C0.438293 27.2035 0.586231 27.5611 0.849633 27.825L2.17502 29.1504C2.4389 29.4138 2.79651 29.5617 3.16936 29.5617C3.5422 29.5617 3.89982 29.4138 4.1637 29.1504L12.119 21.1957C12.2068 21.1078 12.2562 20.9886 12.2562 20.8644C12.2562 20.7401 12.2068 20.6209 12.119 20.533L11.7873 20.2014L13.544 18.4447C14.8953 19.3413 16.5155 19.7421 18.129 19.5789C19.7425 19.4156 21.2496 18.6985 22.394 17.5494C22.4854 17.458 22.5735 17.3648 22.6582 17.2699C22.7333 17.3183 22.8208 17.3439 22.9102 17.3438H27.6563C28.0291 17.3433 28.3865 17.1949 28.6501 16.9313C28.9137 16.6677 29.062 16.3103 29.0625 15.9375V1.875C29.062 1.50219 28.9137 1.14479 28.6501 0.881179C28.3865 0.617563 28.0291 0.469246 27.6563 0.46875ZM3.501 28.4877C3.4131 28.5755 3.29392 28.6249 3.16965 28.6249C3.04539 28.6249 2.9262 28.5755 2.8383 28.4877L1.51233 27.1617C1.42449 27.0738 1.37514 26.9546 1.37514 26.8304C1.37514 26.7061 1.42449 26.5869 1.51233 26.499L9.13596 18.8754L11.1246 20.8641L3.501 28.4877ZM11.1246 19.5387L10.4614 18.8754L12.119 17.2184L12.7817 17.8811L11.1246 19.5387ZM21.7313 16.8867C20.6665 17.9454 19.2461 18.5705 17.7461 18.6404C16.2462 18.7103 14.7738 18.2201 13.6151 17.2651C12.4565 16.31 11.6942 14.9583 11.4765 13.4726C11.2588 11.9869 11.6013 10.4733 12.4372 9.22598C13.2732 7.97865 14.5431 7.08665 16 6.72333C17.457 6.36001 18.997 6.55131 20.3208 7.26006C21.6445 7.9688 22.6576 9.14437 23.163 10.5583C23.6684 11.9723 23.6301 13.5236 23.0555 14.9109C22.749 15.6506 22.299 16.3221 21.7313 16.8867ZM28.125 15.9375C28.1249 16.0618 28.0754 16.1809 27.9875 16.2688C27.8997 16.3566 27.7805 16.4061 27.6563 16.4062H23.3221C24.0103 15.3448 24.3993 14.1173 24.4483 12.8533C24.4972 11.5892 24.2042 10.3354 23.6002 9.22386C22.9962 8.11238 22.1035 7.18443 21.0162 6.53785C19.9289 5.89126 18.6873 5.54998 17.4223 5.54998C16.1573 5.54998 14.9157 5.89126 13.8284 6.53785C12.7411 7.18443 11.8484 8.11238 11.2444 9.22386C10.6403 10.3354 10.3474 11.5892 10.3963 12.8533C10.4452 14.1173 10.8343 15.3448 11.5225 16.4062H6.09377C5.96951 16.4061 5.85038 16.3566 5.76251 16.2688C5.67463 16.1809 5.62519 16.0618 5.62502 15.9375V4.21875H28.125V15.9375ZM28.125 3.28125H5.62502V1.875C5.62519 1.75073 5.67463 1.6316 5.76251 1.54373C5.85038 1.45586 5.96951 1.40642 6.09377 1.40625H27.6563C27.7805 1.40642 27.8997 1.45586 27.9875 1.54373C28.0754 1.6316 28.1249 1.75073 28.125 1.875V3.28125Z" fill="#F7F7F7"/>
<path d="M6.5625 2.8125C6.82138 2.8125 7.03125 2.60263 7.03125 2.34375C7.03125 2.08487 6.82138 1.875 6.5625 1.875C6.30362 1.875 6.09375 2.08487 6.09375 2.34375C6.09375 2.60263 6.30362 2.8125 6.5625 2.8125Z" fill="#F7F7F7"/>
<path d="M7.96875 2.8125C8.22763 2.8125 8.4375 2.60263 8.4375 2.34375C8.4375 2.08487 8.22763 1.875 7.96875 1.875C7.70987 1.875 7.5 2.08487 7.5 2.34375C7.5 2.60263 7.70987 2.8125 7.96875 2.8125Z" fill="#F7F7F7"/>
<path d="M9.375 2.8125C9.63388 2.8125 9.84375 2.60263 9.84375 2.34375C9.84375 2.08487 9.63388 1.875 9.375 1.875C9.11612 1.875 8.90625 2.08487 8.90625 2.34375C8.90625 2.60263 9.11612 2.8125 9.375 2.8125Z" fill="#F7F7F7"/>
<path d="M18.8634 11.8957C19.0018 11.6337 19.0702 11.3405 19.0619 11.0443C19.0535 10.7482 18.9688 10.4593 18.8159 10.2055C18.663 9.95177 18.4471 9.74185 18.1892 9.59613C17.9313 9.45041 17.64 9.37384 17.3438 9.37384C17.0475 9.37384 16.7563 9.45041 16.4984 9.59613C16.2405 9.74185 16.0246 9.95177 15.8717 10.2055C15.7188 10.4593 15.6341 10.7482 15.6257 11.0443C15.6174 11.3405 15.6858 11.6337 15.8242 11.8957C15.4769 12.1037 15.1895 12.3983 14.9902 12.7508C14.791 13.1032 14.6867 13.5014 14.6875 13.9062V14.5313C14.6875 14.6556 14.7369 14.7748 14.8248 14.8627C14.9127 14.9506 15.0319 15 15.1563 15H19.5312C19.6555 15 19.7748 14.9506 19.8627 14.8627C19.9506 14.7748 20 14.6556 20 14.5313V13.9062C20.0008 13.5014 19.8965 13.1032 19.6973 12.7508C19.498 12.3983 19.2107 12.1037 18.8634 11.8957ZM17.3438 10.3125C17.4983 10.3125 17.6494 10.3583 17.7779 10.4442C17.9064 10.53 18.0065 10.652 18.0657 10.7948C18.1248 10.9375 18.1403 11.0946 18.1101 11.2462C18.08 11.3978 18.0056 11.537 17.8963 11.6463C17.787 11.7555 17.6478 11.8299 17.4963 11.8601C17.3447 11.8902 17.1876 11.8747 17.0448 11.8156C16.9021 11.7565 16.7801 11.6563 16.6942 11.5278C16.6084 11.3993 16.5626 11.2483 16.5626 11.0937C16.5628 10.8866 16.6452 10.688 16.7916 10.5416C16.9381 10.3951 17.1367 10.3127 17.3438 10.3125ZM19.0625 14.0625H15.6251V13.9062C15.6245 13.6241 15.7091 13.3483 15.8679 13.115C16.0267 12.8817 16.2522 12.7018 16.5149 12.5989C16.7687 12.739 17.0539 12.8125 17.3438 12.8125C17.6337 12.8125 17.9189 12.739 18.1727 12.5989C18.4354 12.7018 18.6609 12.8817 18.8197 13.115C18.9785 13.3483 19.0631 13.6241 19.0625 13.9062V14.0625Z" fill="#F7F7F7"/>
<path d="M7.03125 6.09375H9.84375C9.96807 6.09375 10.0873 6.04436 10.1752 5.95646C10.2631 5.86855 10.3125 5.74932 10.3125 5.625C10.3125 5.50068 10.2631 5.38145 10.1752 5.29354C10.0873 5.20564 9.96807 5.15625 9.84375 5.15625H7.03125C6.90693 5.15625 6.7877 5.20564 6.69979 5.29354C6.61189 5.38145 6.5625 5.50068 6.5625 5.625C6.5625 5.74932 6.61189 5.86855 6.69979 5.95646C6.7877 6.04436 6.90693 6.09375 7.03125 6.09375Z" fill="#F7F7F7"/>
<path d="M7.03125 7.5H7.96875C8.09307 7.5 8.2123 7.45061 8.30021 7.36271C8.38811 7.2748 8.4375 7.15557 8.4375 7.03125C8.4375 6.90693 8.38811 6.7877 8.30021 6.69979C8.2123 6.61189 8.09307 6.5625 7.96875 6.5625H7.03125C6.90693 6.5625 6.7877 6.61189 6.69979 6.69979C6.61189 6.7877 6.5625 6.90693 6.5625 7.03125C6.5625 7.15557 6.61189 7.2748 6.69979 7.36271C6.7877 7.45061 6.90693 7.5 7.03125 7.5Z" fill="#F7F7F7"/>
<path d="M23.9062 7.96875H26.7188C26.8431 7.96875 26.9623 7.91936 27.0502 7.83146C27.1381 7.74355 27.1875 7.62432 27.1875 7.5V5.625C27.1875 5.50068 27.1381 5.38145 27.0502 5.29354C26.9623 5.20564 26.8431 5.15625 26.7188 5.15625H23.9062C23.7819 5.15625 23.6627 5.20564 23.5748 5.29354C23.4869 5.38145 23.4375 5.50068 23.4375 5.625V7.5C23.4375 7.62432 23.4869 7.74355 23.5748 7.83146C23.6627 7.91936 23.7819 7.96875 23.9062 7.96875ZM24.375 6.09375H26.25V7.03125H24.375V6.09375Z" fill="#F7F7F7"/>
</svg>
