<svg width="56" height="45" viewBox="0 0 56 45" fill="none" xmlns="http://www.w3.org/2000/svg">
<path d="M54.9826 38.5201C54.5312 38.5201 54.1652 38.8931 54.1652 39.3535V40.3889C54.1652 42.0125 52.8696 43.3333 51.2771 43.3333H4.52285C2.93037 43.3333 1.63477 42.0125 1.63477 40.3889V18.909C1.63477 18.4487 1.2688 18.0757 0.817383 18.0757C0.36597 18.0757 0 18.4487 0 18.909V40.3889C0 42.9315 2.02896 45 4.52285 45H51.2771C53.771 45 55.8 42.9315 55.8 40.3889V39.3535C55.8 38.8931 55.434 38.5201 54.9826 38.5201Z" fill="#27AED8"/>
<path d="M51.2771 0H48.8411C48.3897 0 48.0237 0.373 48.0237 0.833333C48.0237 1.29367 48.3897 1.66667 48.8411 1.66667H51.2771C52.8696 1.66667 54.1652 2.98756 54.1652 4.61111V8.88889H1.63477V4.61111C1.63477 2.98756 2.93037 1.66667 4.52285 1.66667H45.3131C45.7645 1.66667 46.1305 1.29367 46.1305 0.833333C46.1305 0.373 45.7645 0 45.3131 0H4.52285C2.02896 0 0 2.06856 0 4.61111V15.3314C0 15.7918 0.36597 16.1648 0.817383 16.1648C1.2688 16.1648 1.63477 15.7918 1.63477 15.3314V10.5556H54.1652V35.7771C54.1652 36.2374 54.5312 36.6104 54.9826 36.6104C55.434 36.6104 55.8 36.2374 55.8 35.7771V4.61111C55.8 2.06856 53.771 0 51.2771 0Z" fill="#27AED8"/>
<path d="M4.41382 5.24136C4.41382 6.68114 5.56273 7.85247 6.97495 7.85247C8.38717 7.85247 9.53608 6.68114 9.53608 5.24136C9.53608 3.80158 8.38717 2.63025 6.97495 2.63025C5.56273 2.63025 4.41382 3.80158 4.41382 5.24136ZM7.90132 5.24136C7.90132 5.76214 7.48576 6.1858 6.97495 6.1858C6.46414 6.1858 6.04858 5.76214 6.04858 5.24136C6.04858 4.72058 6.46414 4.29692 6.97495 4.29692C7.48576 4.29692 7.90132 4.72058 7.90132 5.24136Z" fill="#27AED8"/>
<path d="M10.626 5.24136C10.626 6.68114 11.7749 7.85247 13.1871 7.85247C14.5993 7.85247 15.7482 6.68114 15.7482 5.24136C15.7482 3.80158 14.5993 2.63025 13.1871 2.63025C11.7749 2.63025 10.626 3.80158 10.626 5.24136ZM14.1135 5.24136C14.1135 5.76214 13.6979 6.1858 13.1871 6.1858C12.6763 6.1858 12.2607 5.76214 12.2607 5.24136C12.2607 4.72058 12.6763 4.29692 13.1871 4.29692C13.6979 4.29692 14.1135 4.72058 14.1135 5.24136Z" fill="#27AED8"/>
<path d="M16.8381 5.24136C16.8381 6.68114 17.987 7.85247 19.3993 7.85247C20.8115 7.85247 21.9604 6.68114 21.9604 5.24136C21.9604 3.80158 20.8115 2.63025 19.3993 2.63025C17.987 2.63025 16.8381 3.80158 16.8381 5.24136ZM20.3256 5.24136C20.3256 5.76214 19.9101 6.1858 19.3993 6.1858C18.8885 6.1858 18.4729 5.76214 18.4729 5.24136C18.4729 4.72058 18.8885 4.29692 19.3993 4.29692C19.9101 4.29692 20.3256 4.72058 20.3256 5.24136Z" fill="#27AED8"/>
<path d="M19.1813 18.2835H14.8219C14.3705 18.2835 14.0045 18.6565 14.0045 19.1169V27.2223H11.5524C11.101 27.2223 10.735 27.5953 10.735 28.0556C10.735 28.516 11.101 28.889 11.5524 28.889H44.2477C44.6991 28.889 45.0651 28.516 45.0651 28.0556C45.0651 27.5953 44.6991 27.2223 44.2477 27.2223H41.7955V19.7613C41.7955 19.301 41.4296 18.928 40.9781 18.928H37.4362V12.5001C37.4362 12.0397 37.0702 11.6667 36.6188 11.6667H32.2594C31.808 11.6667 31.442 12.0397 31.442 12.5001V17.058H28.7174V15.3315C28.7174 14.8712 28.3514 14.4982 27.9 14.4982H23.5406C23.0892 14.4982 22.7233 14.8712 22.7233 15.3315V20.8602H19.9987V19.1169C19.9987 18.6565 19.6327 18.2835 19.1813 18.2835ZM15.6393 19.9502H18.3639V27.2223H15.6393V19.9502ZM40.1608 20.5946V27.2223H37.4362V20.5946H40.1608ZM33.0768 13.3334H35.8014V27.2223H33.0768V13.3334ZM31.442 18.7246V27.2223H28.7174V18.7246H31.442ZM24.358 16.1649H27.0826V27.2223H24.358V16.1649ZM22.7233 22.5269V27.2223H19.9987V22.5269H22.7233Z" fill="#27AED8"/>
<path d="M29.3841 35.1441C30.3085 35.1441 31.12 34.6422 31.5704 33.8918L38.9624 35.5951C39.0938 36.9101 40.1863 37.9395 41.5102 37.9395C42.9225 37.9395 44.0714 36.7682 44.0714 35.3284C44.0714 33.8887 42.9225 32.7173 41.5102 32.7173C40.5858 32.7173 39.7743 33.2192 39.3239 33.9697L31.9319 32.2663C31.8005 30.9513 30.708 29.9219 29.3841 29.9219C27.9719 29.9219 26.823 31.0932 26.823 32.533V32.5359L16.327 36.1512C15.8587 35.5254 15.1197 35.1209 14.2898 35.1209C12.8776 35.1209 11.7286 36.2922 11.7286 37.732C11.7286 39.1718 12.8776 40.3431 14.2898 40.3431C15.702 40.3431 16.8509 39.1718 16.8509 37.732C16.8509 37.7313 16.8509 37.7307 16.8509 37.7301L27.3475 34.1145C27.8158 34.7399 28.5545 35.1441 29.3841 35.1441ZM14.2898 38.6764C13.779 38.6764 13.3634 38.2528 13.3634 37.732C13.3634 37.2112 13.779 36.7875 14.2898 36.7875C14.8006 36.7875 15.2161 37.2112 15.2161 37.732C15.2161 38.2528 14.8006 38.6764 14.2898 38.6764ZM41.5104 34.3839C42.0212 34.3839 42.4367 34.8075 42.4367 35.3283C42.4367 35.8491 42.0212 36.2728 41.5104 36.2728C40.9995 36.2728 40.584 35.8491 40.584 35.3283C40.584 34.8075 40.9995 34.3839 41.5104 34.3839ZM29.3841 31.5885C29.8949 31.5885 30.3105 32.0122 30.3105 32.533C30.3105 33.0538 29.8949 33.4774 29.3841 33.4774C28.9781 33.4774 28.6323 33.2098 28.5075 32.8384C28.5072 32.8374 28.507 32.8365 28.5067 32.8355C28.5063 32.8344 28.5059 32.8334 28.5056 32.8323C28.4746 32.7382 28.4578 32.6375 28.4578 32.5329C28.4577 32.0122 28.8733 31.5885 29.3841 31.5885Z" fill="#27AED8"/>
</svg>
